<mxfile host="app.diagrams.net" modified="2021-06-06T21:02:33.938Z" agent="5.0 (X11; Linux x86_64) AppleWebKit/537.36 (KHTML, like Gecko) Chrome/90.0.4430.93 Safari/537.36" etag="ILf3cfLZJ2b0RYJX29ax" version="14.7.6" type="github">
  <diagram id="kgpKYQtTHZ0yAKxKKP6v" name="Page-1">
    <mxGraphModel dx="2272" dy="749" grid="1" gridSize="10" guides="1" tooltips="1" connect="1" arrows="1" fold="1" page="1" pageScale="1" pageWidth="850" pageHeight="1100" math="0" shadow="0">
      <root>
        <mxCell id="0" />
        <mxCell id="1" parent="0" />
        <mxCell id="3nuBFxr9cyL0pnOWT2aG-1" value="Job" style="shape=umlLifeline;perimeter=lifelinePerimeter;container=1;collapsible=0;recursiveResize=0;rounded=0;shadow=0;strokeWidth=1;labelBackgroundColor=none;fillColor=#60a917;strokeColor=#2D7600;fontStyle=1;fontColor=#F7F7F7;" parent="1" vertex="1">
          <mxGeometry x="-111" y="138" width="100" height="422" as="geometry" />
        </mxCell>
        <mxCell id="3nuBFxr9cyL0pnOWT2aG-2" value="" style="points=[];perimeter=orthogonalPerimeter;rounded=0;shadow=0;strokeWidth=1;" parent="3nuBFxr9cyL0pnOWT2aG-1" vertex="1">
          <mxGeometry x="45" y="70" width="10" height="310" as="geometry" />
        </mxCell>
        <mxCell id="3nuBFxr9cyL0pnOWT2aG-3" value="Job Launcher" style="verticalAlign=bottom;startArrow=oval;endArrow=block;startSize=8;shadow=0;strokeWidth=1;fontStyle=1" parent="3nuBFxr9cyL0pnOWT2aG-1" target="3nuBFxr9cyL0pnOWT2aG-2" edge="1">
          <mxGeometry relative="1" as="geometry">
            <mxPoint x="-40" y="70" as="sourcePoint" />
          </mxGeometry>
        </mxCell>
        <mxCell id="3nuBFxr9cyL0pnOWT2aG-5" value="Step1" style="shape=umlLifeline;perimeter=lifelinePerimeter;container=1;collapsible=0;recursiveResize=0;rounded=0;shadow=0;strokeWidth=1;fillColor=#60a917;strokeColor=#2D7600;fontColor=#ffffff;fontStyle=1" parent="1" vertex="1">
          <mxGeometry x="69" y="138" width="100" height="422" as="geometry" />
        </mxCell>
        <mxCell id="3nuBFxr9cyL0pnOWT2aG-6" value="" style="points=[];perimeter=orthogonalPerimeter;rounded=0;shadow=0;strokeWidth=1;" parent="3nuBFxr9cyL0pnOWT2aG-5" vertex="1">
          <mxGeometry x="45" y="70" width="10" height="250" as="geometry" />
        </mxCell>
        <mxCell id="3nuBFxr9cyL0pnOWT2aG-8" value="Step1-Read-Process-Write" style="verticalAlign=bottom;endArrow=block;entryX=0;entryY=0;shadow=0;strokeWidth=1;fontStyle=1" parent="1" edge="1">
          <mxGeometry relative="1" as="geometry">
            <mxPoint x="-56" y="239" as="sourcePoint" />
            <mxPoint x="114" y="239" as="targetPoint" />
          </mxGeometry>
        </mxCell>
        <mxCell id="3nuBFxr9cyL0pnOWT2aG-9" value="callback" style="verticalAlign=bottom;endArrow=block;shadow=0;strokeWidth=1;entryX=1.3;entryY=0.274;entryDx=0;entryDy=0;entryPerimeter=0;fontStyle=1" parent="1" edge="1">
          <mxGeometry relative="1" as="geometry">
            <mxPoint x="114" y="449.94000000000005" as="sourcePoint" />
            <mxPoint x="-53" y="449.94000000000005" as="targetPoint" />
          </mxGeometry>
        </mxCell>
        <mxCell id="l7WWLxRHsnXHngs8ZiXc-3" value="Step2" style="shape=umlLifeline;perimeter=lifelinePerimeter;container=1;collapsible=0;recursiveResize=0;rounded=0;shadow=0;strokeWidth=1;fillColor=#60a917;strokeColor=#2D7600;fontColor=#ffffff;fontStyle=1" vertex="1" parent="1">
          <mxGeometry x="585" y="138" width="100" height="422" as="geometry" />
        </mxCell>
        <mxCell id="l7WWLxRHsnXHngs8ZiXc-4" value="" style="points=[];perimeter=orthogonalPerimeter;rounded=0;shadow=0;strokeWidth=1;" vertex="1" parent="l7WWLxRHsnXHngs8ZiXc-3">
          <mxGeometry x="45" y="120" width="10" height="270" as="geometry" />
        </mxCell>
        <mxCell id="l7WWLxRHsnXHngs8ZiXc-5" value="Item Reader" style="shape=umlLifeline;perimeter=lifelinePerimeter;container=1;collapsible=0;recursiveResize=0;rounded=0;shadow=0;strokeWidth=1;fillColor=#f0a30a;strokeColor=#BD7000;fontColor=#000000;" vertex="1" parent="1">
          <mxGeometry x="180" y="201" width="100" height="359" as="geometry" />
        </mxCell>
        <mxCell id="l7WWLxRHsnXHngs8ZiXc-6" value="" style="points=[];perimeter=orthogonalPerimeter;rounded=0;shadow=0;strokeWidth=1;" vertex="1" parent="l7WWLxRHsnXHngs8ZiXc-5">
          <mxGeometry x="45" y="54" width="10" height="66" as="geometry" />
        </mxCell>
        <mxCell id="l7WWLxRHsnXHngs8ZiXc-7" value="Item Processor" style="shape=umlLifeline;perimeter=lifelinePerimeter;container=1;collapsible=0;recursiveResize=0;rounded=0;shadow=0;strokeWidth=1;fillColor=#f0a30a;strokeColor=#BD7000;fontColor=#000000;" vertex="1" parent="1">
          <mxGeometry x="321" y="200" width="100" height="360" as="geometry" />
        </mxCell>
        <mxCell id="l7WWLxRHsnXHngs8ZiXc-8" value="" style="points=[];perimeter=orthogonalPerimeter;rounded=0;shadow=0;strokeWidth=1;" vertex="1" parent="l7WWLxRHsnXHngs8ZiXc-7">
          <mxGeometry x="45" y="120" width="10" height="60" as="geometry" />
        </mxCell>
        <mxCell id="l7WWLxRHsnXHngs8ZiXc-9" value="Item Writer" style="shape=umlLifeline;perimeter=lifelinePerimeter;container=1;collapsible=0;recursiveResize=0;rounded=0;shadow=0;strokeWidth=1;fillColor=#f0a30a;strokeColor=#BD7000;fontColor=#000000;" vertex="1" parent="1">
          <mxGeometry x="460" y="200" width="100" height="360" as="geometry" />
        </mxCell>
        <mxCell id="l7WWLxRHsnXHngs8ZiXc-10" value="" style="points=[];perimeter=orthogonalPerimeter;rounded=0;shadow=0;strokeWidth=1;" vertex="1" parent="l7WWLxRHsnXHngs8ZiXc-9">
          <mxGeometry x="45" y="191" width="10" height="54" as="geometry" />
        </mxCell>
        <mxCell id="l7WWLxRHsnXHngs8ZiXc-11" value="Tasklet" style="shape=umlLifeline;perimeter=lifelinePerimeter;container=1;collapsible=0;recursiveResize=0;rounded=0;shadow=0;strokeWidth=1;fillColor=#f0a30a;strokeColor=#BD7000;fontColor=#000000;" vertex="1" parent="1">
          <mxGeometry x="708" y="200" width="100" height="360" as="geometry" />
        </mxCell>
        <mxCell id="l7WWLxRHsnXHngs8ZiXc-12" value="" style="points=[];perimeter=orthogonalPerimeter;rounded=0;shadow=0;strokeWidth=1;" vertex="1" parent="l7WWLxRHsnXHngs8ZiXc-11">
          <mxGeometry x="45" y="270" width="10" height="60" as="geometry" />
        </mxCell>
        <mxCell id="l7WWLxRHsnXHngs8ZiXc-13" value="" style="endArrow=classic;html=1;fontColor=#F7F7F7;entryX=0.2;entryY=0.873;entryDx=0;entryDy=0;entryPerimeter=0;exitX=0.9;exitY=0.89;exitDx=0;exitDy=0;exitPerimeter=0;" edge="1" parent="1">
          <mxGeometry width="50" height="50" relative="1" as="geometry">
            <mxPoint x="-57" y="478.9000000000001" as="sourcePoint" />
            <mxPoint x="632" y="479.98" as="targetPoint" />
          </mxGeometry>
        </mxCell>
        <mxCell id="l7WWLxRHsnXHngs8ZiXc-22" value="Step2-for-deleting-file" style="edgeLabel;html=1;align=center;verticalAlign=bottom;resizable=0;points=[];fontColor=#030303;labelPosition=center;verticalLabelPosition=top;fontStyle=1" vertex="1" connectable="0" parent="l7WWLxRHsnXHngs8ZiXc-13">
          <mxGeometry x="-0.0914" y="-1" relative="1" as="geometry">
            <mxPoint x="43" y="-1" as="offset" />
          </mxGeometry>
        </mxCell>
        <mxCell id="l7WWLxRHsnXHngs8ZiXc-14" value="&lt;b&gt;read()&lt;/b&gt;" style="endArrow=classic;html=1;entryX=0.2;entryY=0.242;entryDx=0;entryDy=0;entryPerimeter=0;labelBackgroundColor=none;fontColor=#030303;labelPosition=center;verticalLabelPosition=top;align=center;verticalAlign=bottom;" edge="1" parent="1" target="l7WWLxRHsnXHngs8ZiXc-6">
          <mxGeometry width="50" height="50" relative="1" as="geometry">
            <mxPoint x="125" y="271" as="sourcePoint" />
            <mxPoint x="225" y="270.02599999999995" as="targetPoint" />
          </mxGeometry>
        </mxCell>
        <mxCell id="l7WWLxRHsnXHngs8ZiXc-15" value="Item" style="endArrow=classic;html=1;labelBackgroundColor=none;fontColor=#030303;entryX=1.3;entryY=0.376;entryDx=0;entryDy=0;entryPerimeter=0;labelPosition=center;verticalLabelPosition=top;align=center;verticalAlign=bottom;fontStyle=1" edge="1" parent="1">
          <mxGeometry width="50" height="50" relative="1" as="geometry">
            <mxPoint x="226" y="304" as="sourcePoint" />
            <mxPoint x="123" y="304" as="targetPoint" />
          </mxGeometry>
        </mxCell>
        <mxCell id="l7WWLxRHsnXHngs8ZiXc-16" value="" style="endArrow=classic;html=1;labelBackgroundColor=none;fontColor=#030303;entryX=-0.1;entryY=0.35;entryDx=0;entryDy=0;entryPerimeter=0;" edge="1" parent="1">
          <mxGeometry width="50" height="50" relative="1" as="geometry">
            <mxPoint x="124.5" y="340" as="sourcePoint" />
            <mxPoint x="366" y="340" as="targetPoint" />
          </mxGeometry>
        </mxCell>
        <mxCell id="l7WWLxRHsnXHngs8ZiXc-17" value="process()" style="edgeLabel;html=1;align=center;verticalAlign=bottom;resizable=0;points=[];fontColor=#030303;fontStyle=1;labelPosition=center;verticalLabelPosition=top;" vertex="1" connectable="0" parent="l7WWLxRHsnXHngs8ZiXc-16">
          <mxGeometry x="0.3043" y="-1" relative="1" as="geometry">
            <mxPoint x="1" as="offset" />
          </mxGeometry>
        </mxCell>
        <mxCell id="l7WWLxRHsnXHngs8ZiXc-18" value="Item" style="endArrow=classic;html=1;labelBackgroundColor=none;fontColor=#030303;fontStyle=1;labelPosition=center;verticalLabelPosition=top;align=center;verticalAlign=bottom;" edge="1" parent="1">
          <mxGeometry width="50" height="50" relative="1" as="geometry">
            <mxPoint x="363" y="373" as="sourcePoint" />
            <mxPoint x="125.5" y="373" as="targetPoint" />
          </mxGeometry>
        </mxCell>
        <mxCell id="l7WWLxRHsnXHngs8ZiXc-19" value="" style="endArrow=classic;html=1;labelBackgroundColor=none;fontColor=#030303;" edge="1" parent="1">
          <mxGeometry width="50" height="50" relative="1" as="geometry">
            <mxPoint x="123" y="401" as="sourcePoint" />
            <mxPoint x="506" y="401" as="targetPoint" />
          </mxGeometry>
        </mxCell>
        <mxCell id="l7WWLxRHsnXHngs8ZiXc-20" value="writer()" style="edgeLabel;html=1;align=center;verticalAlign=bottom;resizable=0;points=[];fontColor=#030303;fontStyle=1;labelPosition=center;verticalLabelPosition=top;" vertex="1" connectable="0" parent="l7WWLxRHsnXHngs8ZiXc-19">
          <mxGeometry x="0.6107" y="3" relative="1" as="geometry">
            <mxPoint as="offset" />
          </mxGeometry>
        </mxCell>
        <mxCell id="l7WWLxRHsnXHngs8ZiXc-21" value="Item" style="endArrow=classic;html=1;labelBackgroundColor=none;fontColor=#030303;exitX=0.5;exitY=0.741;exitDx=0;exitDy=0;exitPerimeter=0;fontStyle=1;labelPosition=center;verticalLabelPosition=top;align=center;verticalAlign=bottom;" edge="1" parent="1">
          <mxGeometry width="50" height="50" relative="1" as="geometry">
            <mxPoint x="506" y="431.0139999999999" as="sourcePoint" />
            <mxPoint x="122.5" y="431" as="targetPoint" />
          </mxGeometry>
        </mxCell>
        <mxCell id="l7WWLxRHsnXHngs8ZiXc-23" value="execute()" style="endArrow=classic;html=1;labelBackgroundColor=none;fontColor=#030303;labelPosition=center;verticalLabelPosition=top;align=center;verticalAlign=bottom;fontStyle=1" edge="1" parent="1">
          <mxGeometry width="50" height="50" relative="1" as="geometry">
            <mxPoint x="641" y="495" as="sourcePoint" />
            <mxPoint x="751" y="495" as="targetPoint" />
          </mxGeometry>
        </mxCell>
        <mxCell id="l7WWLxRHsnXHngs8ZiXc-24" value="RepeatStatus" style="endArrow=classic;html=1;labelBackgroundColor=none;fontColor=#030303;labelPosition=center;verticalLabelPosition=bottom;align=center;verticalAlign=top;fontStyle=1" edge="1" parent="1">
          <mxGeometry width="50" height="50" relative="1" as="geometry">
            <mxPoint x="753" y="523" as="sourcePoint" />
            <mxPoint x="639.5" y="523" as="targetPoint" />
          </mxGeometry>
        </mxCell>
      </root>
    </mxGraphModel>
  </diagram>
</mxfile>
